<svg xmlns="http://www.w3.org/2000/svg" width="38.563" height="38.059"><path d="M2.758 16.05h33.04l-1.271 22.029h-30.5zm.689-6.883H35.11a3.442 3.442 0 110 6.883H3.45a3.442 3.442 0 110-6.883zM1.382 16.05h35.793v1.377H1.382V16.05zm17.9 6.879a1.38 1.38 0 011.377 1.38v8.26a1.377 1.377 0 11-2.753 0v-8.26a1.379 1.379 0 011.372-1.38zm8.26 0a1.38 1.38 0 011.377 1.38v8.26a1.377 1.377 0 11-2.754 0v-8.26a1.38 1.38 0 011.373-1.38zm-16.52 0a1.38 1.38 0 011.377 1.38v8.26a1.377 1.377 0 11-2.753 0v-8.26a1.379 1.379 0 011.372-1.38zM23.068.36a2.752 2.752 0 013.761 1.008l4.13 7.153a2.753 2.753 0 11-4.769 2.753l-4.13-7.153A2.754 2.754 0 0123.064.36zm-7.572 0a2.753 2.753 0 00-3.761 1.008l-4.13 7.153a2.753 2.753 0 104.769 2.753l4.13-7.153A2.754 2.754 0 0015.492.36z" fill="#fed136" fill-rule="evenodd"/></svg>