<svg xmlns="http://www.w3.org/2000/svg" width="40.375" height="33.624"><path d="M6.731-.006h26.908a4.036 4.036 0 014.036 4.036v17.494a4.037 4.037 0 01-4.036 4.03H6.731a4.037 4.037 0 01-4.036-4.03V4.03A4.036 4.036 0 016.731-.006zm-4.036 22.87h4.036v2.69H2.695v-2.69zm30.944 0h4.036v2.69h-4.036v-2.69zM6.731 4.03h26.908v24.214H6.731V4.03zM2.695 28.244h34.98a2.694 2.694 0 012.691 2.69c0 1.49-2.551 2.69-4.037 2.69H4.041c-1.486 0-4.036-1.2-4.036-2.69a2.693 2.693 0 012.69-2.69zm13.454 2.69h8.072a.842.842 0 110 1.35h-8.072a.842.842 0 110-1.35zm-5-15.156l1.894-1.9a1.336 1.336 0 011.894 0l4.735 4.759a1.347 1.347 0 010 1.9l-1.894 1.9a1.327 1.327 0 01-1.894 0l-4.735-4.75a1.354 1.354 0 01.003-1.909zm16.167-7.447l1.9 1.9a1.35 1.35 0 010 1.9L18.798 22.599a1.346 1.346 0 01-1.9 0l-1.894-1.91a1.347 1.347 0 010-1.9L25.422 8.326a1.334 1.334 0 011.897.005z" fill="#fed136" fill-rule="evenodd"/></svg>