<svg xmlns="http://www.w3.org/2000/svg" width="28" height="37.345"><path d="M13.99.008c5.16 0 9.34 3.656 9.34 8.166v19.831c0 4.51-4.18 8.17-9.34 8.17s-9.33-3.66-9.33-8.17V8.175c0-4.511 4.18-8.167 9.33-8.167zm0 4.666c2.58 0 4.67 1.568 4.67 3.5v8.166c0 1.934-2.09 3.5-4.67 3.5s-4.66-1.566-4.66-3.5V8.175c0-1.933 2.09-3.5 4.66-3.5zM3.5 17.507h20.99a3.5 3.5 0 013.5 3.5v12.827a3.5 3.5 0 01-3.5 3.51H3.5a3.5 3.5 0 01-3.5-3.51V21.008a3.5 3.5 0 013.5-3.501zm10.49 5.838a2.334 2.334 0 012.34 2.33v5.83a2.335 2.335 0 01-4.67 0v-5.83a2.332 2.332 0 012.33-2.33zm0-2.337a4.669 4.669 0 11-4.66 4.667 4.666 4.666 0 014.66-4.667z" fill="#fed136" fill-rule="evenodd"/></svg>